<?xml version="1.0" standalone="no"?>
<!DOCTYPE svg PUBLIC "-//W3C//DTD SVG 20010904//EN"
 "http://www.w3.org/TR/2001/REC-SVG-20010904/DTD/svg10.dtd">
<svg version="1.0" xmlns="http://www.w3.org/2000/svg"
 width="260.000000pt" height="260.000000pt" viewBox="0 0 260.000000 260.000000"
 preserveAspectRatio="xMidYMid meet">
<metadata>
Created by potrace 1.14, written by Peter Selinger 2001-2017
</metadata>
<g transform="translate(0.000000,260.000000) scale(0.100000,-0.100000)"
fill="#000000" stroke="none">
<path d="M224 2093 c4 -17 70 -241 162 -555 l37 -128 92 0 91 0 58 193 c32
105 60 193 61 195 3 3 37 -102 97 -303 l24 -80 91 -3 92 -3 25 83 c82 272 176
597 176 607 0 7 -33 11 -103 11 l-104 0 -43 -197 c-23 -109 -46 -206 -49 -216
-5 -12 -24 47 -55 165 -26 100 -52 198 -58 216 l-10 32 -82 0 -83 0 -53 -207
c-29 -115 -55 -210 -57 -212 -7 -9 -13 11 -52 189 -23 102 -44 195 -46 208 -5
21 -10 22 -111 22 -96 0 -105 -2 -100 -17z"/>
<path d="M1370 2100 c0 -10 159 -560 186 -643 l16 -48 91 3 91 3 33 110 c19
61 43 141 54 179 11 39 23 76 27 83 4 7 33 -71 67 -182 l59 -195 91 0 91 0 98
333 c53 182 100 340 102 350 5 15 -4 17 -100 17 -114 0 -107 4 -120 -65 -7
-36 -6 -31 -47 -218 -18 -81 -36 -142 -40 -135 -6 11 -92 331 -106 396 -5 22
-9 23 -90 20 l-85 -3 -29 -110 c-16 -60 -31 -119 -34 -130 -30 -127 -49 -185
-56 -168 -4 11 -26 108 -50 217 l-43 196 -103 0 c-60 0 -103 -4 -103 -10z"/>
<path d="M999 1142 c-4 -264 2 -439 16 -481 20 -60 66 -108 134 -140 49 -22
69 -26 151 -25 80 0 104 5 150 26 30 14 69 41 87 59 57 61 64 98 64 349 0 124
0 235 0 247 -1 21 -5 22 -96 22 l-95 0 0 -230 c0 -256 -5 -279 -62 -304 -32
-13 -79 -10 -110 6 -43 23 -48 56 -48 298 l0 231 -95 -1 -95 -1 -1 -56z"/>
</g>
</svg>
