<?xml version="1.0" standalone="no"?>
<!DOCTYPE svg PUBLIC "-//W3C//DTD SVG 20010904//EN"
 "http://www.w3.org/TR/2001/REC-SVG-20010904/DTD/svg10.dtd">
<svg version="1.0" xmlns="http://www.w3.org/2000/svg"
 width="700.000000pt" height="700.000000pt" viewBox="0 0 700.000000 700.000000"
 preserveAspectRatio="xMidYMid meet">
<metadata>
Created by potrace 1.14, written by Peter Selinger 2001-2017
</metadata>
<g transform="translate(0.000000,700.000000) scale(0.100000,-0.100000)"
fill="#000000" stroke="none">
<path d="M3641 4460 c-4 -3 -7 -160 -6 -350 0 -190 -1 -349 -3 -353 -2 -5 -13
9 -23 31 -45 90 -140 171 -242 205 -46 15 -213 19 -262 5 -208 -59 -340 -209
-401 -455 -22 -89 -28 -376 -9 -457 7 -31 14 -60 14 -64 23 -145 138 -312 266
-387 103 -60 264 -84 377 -55 103 26 213 111 258 200 11 22 22 40 24 40 2 0 3
-49 3 -110 0 -60 3 -113 7 -117 4 -5 118 -8 252 -8 l244 0 0 940 0 940 -246 0
c-135 0 -249 -2 -253 -5z m-101 -879 c134 -108 140 -465 8 -576 -41 -35 -73
-47 -128 -47 -93 -2 -157 53 -196 169 -18 53 -21 83 -19 176 3 119 16 173 60
239 58 87 191 106 275 39z"/>
<path d="M4642 3525 l3 -940 247 0 c212 0 247 2 251 15 2 8 2 59 1 113 -3 101
6 120 29 64 33 -79 149 -168 257 -197 44 -12 171 -15 219 -5 203 41 354 199
423 440 20 71 22 102 22 275 0 171 -3 205 -23 275 -64 229 -192 371 -387 430
-57 17 -247 16 -279 -2 -11 -6 -38 -19 -60 -29 -53 -25 -137 -109 -168 -170
-32 -59 -29 -93 -29 336 l-1 335 -254 0 -253 0 2 -940z m820 66 c82 -52 125
-180 115 -341 -7 -105 -18 -145 -60 -206 -75 -111 -223 -118 -308 -15 -90 109
-96 383 -11 506 61 88 175 112 264 56z"/>
<path d="M838 3989 c-7 -4 -7 -13 -1 -25 6 -11 112 -325 238 -699 l228 -680
293 0 293 0 15 40 c14 41 123 363 337 1004 66 195 116 357 113 360 -3 3 -120
6 -261 6 -246 0 -256 -1 -264 -20 -7 -16 -34 -125 -84 -335 -2 -8 -24 -100
-50 -205 -26 -104 -49 -200 -51 -212 -2 -12 -9 -35 -15 -50 -6 -16 -10 -30
-10 -33 2 -15 -12 -71 -19 -75 -5 -3 -11 3 -14 12 -8 29 -147 595 -152 623 -6
27 -48 203 -64 260 l-9 35 -257 0 c-141 0 -260 -3 -266 -6z"/>
</g>
</svg>
