<svg width="260" height="260" viewBox="0 0 260 260" fill="none" xmlns="http://www.w3.org/2000/svg">
<path d="M87.8048 111.636L70.2139 164H48.3957L30.8048 111.636H50.5776L59.0321 146.273H59.5776L68.0321 111.636H87.8048ZM120.118 164.682C116.391 164.682 112.959 163.705 109.822 161.75C106.709 159.795 104.209 156.83 102.322 152.852C100.459 148.875 99.527 143.864 99.527 137.818C99.527 131.5 100.504 126.364 102.459 122.409C104.436 118.455 106.982 115.557 110.095 113.716C113.232 111.875 116.527 110.955 119.982 110.955C122.572 110.955 124.845 111.409 126.8 112.318C128.754 113.205 130.391 114.398 131.709 115.898C133.027 117.375 134.027 119 134.709 120.773H134.982V94.1818H153.8V164H135.118V155.409H134.709C133.982 157.182 132.936 158.773 131.572 160.182C130.232 161.568 128.595 162.67 126.663 163.489C124.754 164.284 122.572 164.682 120.118 164.682ZM127.072 150.227C128.8 150.227 130.277 149.727 131.504 148.727C132.754 147.705 133.709 146.273 134.368 144.432C135.05 142.568 135.391 140.364 135.391 137.818C135.391 135.227 135.05 133.011 134.368 131.17C133.709 129.307 132.754 127.886 131.504 126.909C130.277 125.909 128.8 125.409 127.072 125.409C125.345 125.409 123.868 125.909 122.641 126.909C121.436 127.886 120.504 129.307 119.845 131.17C119.209 133.011 118.891 135.227 118.891 137.818C118.891 140.409 119.209 142.636 119.845 144.5C120.504 146.341 121.436 147.761 122.641 148.761C123.868 149.739 125.345 150.227 127.072 150.227ZM172.366 164V94.1818H191.184V120.773H191.457C192.138 119 193.138 117.375 194.457 115.898C195.775 114.398 197.411 113.205 199.366 112.318C201.32 111.409 203.593 110.955 206.184 110.955C209.638 110.955 212.922 111.875 216.036 113.716C219.172 115.557 221.718 118.455 223.672 122.409C225.65 126.364 226.638 131.5 226.638 137.818C226.638 143.864 225.695 148.875 223.809 152.852C221.945 156.83 219.445 159.795 216.309 161.75C213.195 163.705 209.775 164.682 206.047 164.682C203.593 164.682 201.4 164.284 199.468 163.489C197.559 162.67 195.922 161.568 194.559 160.182C193.218 158.773 192.184 157.182 191.457 155.409H191.047V164H172.366ZM190.775 137.818C190.775 140.364 191.104 142.568 191.763 144.432C192.445 146.273 193.4 147.705 194.627 148.727C195.877 149.727 197.366 150.227 199.093 150.227C200.82 150.227 202.286 149.739 203.491 148.761C204.718 147.761 205.65 146.341 206.286 144.5C206.945 142.636 207.275 140.409 207.275 137.818C207.275 135.227 206.945 133.011 206.286 131.17C205.65 129.307 204.718 127.886 203.491 126.909C202.286 125.909 200.82 125.409 199.093 125.409C197.366 125.409 195.877 125.909 194.627 126.909C193.4 127.886 192.445 129.307 191.763 131.17C191.104 133.011 190.775 135.227 190.775 137.818Z" fill="white"/>
</svg>
