<svg width="260" height="260" viewBox="0 0 260 260" fill="none" xmlns="http://www.w3.org/2000/svg">
<path d="M42.4273 119L21.8364 49.1818H42.9727L52.5182 92.1364H53.0636L64.3818 49.1818H81.0182L92.3364 92.2727H92.8818L102.427 49.1818H123.564L102.973 119H84.8364L72.9727 80H72.4273L60.5636 119H42.4273ZM157.027 119L136.436 49.1818H157.573L167.118 92.1364H167.664L178.982 49.1818H195.618L206.936 92.2727H207.482L217.027 49.1818H238.164L217.573 119H199.436L187.573 80H187.027L175.164 119H157.027ZM141.178 140.182H160.132V184.909C160.132 190.227 158.859 194.83 156.314 198.716C153.791 202.58 150.268 205.568 145.746 207.682C141.223 209.773 135.973 210.818 129.996 210.818C123.973 210.818 118.7 209.773 114.178 207.682C109.655 205.568 106.132 202.58 103.609 198.716C101.109 194.83 99.8594 190.227 99.8594 184.909V140.182H118.814V183.273C118.814 185.432 119.291 187.364 120.246 189.068C121.2 190.75 122.518 192.068 124.2 193.023C125.905 193.977 127.837 194.455 129.996 194.455C132.178 194.455 134.109 193.977 135.791 193.023C137.473 192.068 138.791 190.75 139.746 189.068C140.7 187.364 141.178 185.432 141.178 183.273V140.182Z" fill="white"/>
</svg>
